# Blender 4.1.1
# www.blender.org
mtllib Egyptian Obelisk(OBJ).mtl
o Egyptian_Obelisk
v 0.438929 1.087828 0.942431
v 0.438929 2.809908 0.544757
v 0.438929 1.074737 1.060132
v 0.438929 2.809908 0.987144
v -0.464619 1.087828 0.942431
v -0.464619 2.809908 0.544757
v -0.464619 1.074737 1.060132
v -0.464619 2.809908 0.987144
v 0.438929 1.087828 -0.942431
v 0.438929 2.809908 -0.544757
v 0.438929 1.074737 -1.060132
v 0.438929 2.809908 -0.987144
v -0.464619 1.087828 -0.942431
v -0.464619 2.809908 -0.544757
v -0.464619 1.074737 -1.060132
v -0.464619 2.809908 -0.987144
v -1.619307 -0.000001 1.619307
v -1.422302 0.782299 1.422302
v -1.619307 -0.000001 -1.619307
v -1.422302 0.782299 -1.422302
v 1.619307 -0.000001 1.619307
v 1.422302 0.782299 1.422302
v 1.619307 -0.000001 -1.619307
v 1.422302 0.782299 -1.422302
v -1.355673 0.744145 1.355673
v -1.263410 0.972186 1.263410
v -1.355673 0.744145 -1.355673
v -1.263410 0.972186 -1.263410
v 1.355673 0.744145 1.355673
v 1.263410 0.972186 1.263410
v 1.355673 0.744145 -1.355673
v 1.263410 0.972186 -1.263410
v -1.172403 0.944541 1.172403
v -1.170618 1.087955 1.170618
v -1.172403 0.944541 -1.172403
v -1.170618 1.087955 -1.170618
v 1.172403 0.944541 1.172403
v 1.170618 1.087955 1.170618
v 1.172403 0.944541 -1.172403
v 1.170618 1.087955 -1.170618
v -1.053752 1.069626 0.979773
v -0.735555 2.320338 0.735555
v -0.979773 1.069626 -0.979773
v -0.735555 2.320338 -0.735555
v 1.053752 1.069626 0.979773
v 0.735555 2.320338 0.735555
v 0.979773 1.069626 -0.979773
v 0.735555 2.320338 -0.735555
v -0.968443 1.399318 0.914297
v -0.979962 1.354034 0.923139
v -0.888896 1.712011 0.853244
v -0.900410 1.666743 0.862083
v -0.809350 2.024705 0.792192
v -0.820859 1.979457 0.801027
v -0.801077 1.979261 -0.801076
v -0.792142 2.025023 -0.792143
v -0.862130 1.666617 -0.862130
v -0.853198 1.712361 -0.853199
v -0.923183 1.353968 -0.923183
v -0.914254 1.399698 -0.914255
v 0.801077 1.979261 -0.801076
v 0.792142 2.025023 -0.792143
v 0.862130 1.666617 -0.862130
v 0.853198 1.712361 -0.853199
v 0.923183 1.353968 -0.923183
v 0.914254 1.399698 -0.914255
v 0.820859 1.979457 0.801027
v 0.809350 2.024705 0.792192
v 0.900410 1.666743 0.862083
v 0.888896 1.712011 0.853244
v 0.979962 1.354034 0.923139
v 0.968443 1.399318 0.914297
v 0.952754 1.354033 0.897579
v 0.942106 1.399324 0.887834
v -0.942106 1.399324 0.887834
v -0.952754 1.354033 0.897579
v 0.873287 1.666741 0.836414
v 0.862676 1.712016 0.826646
v -0.862676 1.712016 0.826646
v -0.873287 1.666741 0.836414
v 0.793834 1.979454 0.775231
v 0.783265 2.024710 0.765438
v -0.783265 2.024710 0.765438
v -0.793834 1.979454 0.775231
v 0.897144 1.353969 -0.896302
v 0.888314 1.399692 -0.887276
v 0.836000 1.666619 -0.835355
v 0.827139 1.712356 -0.826353
v 0.774843 1.979264 -0.774424
v 0.765946 2.025017 -0.765450
v -0.897144 1.353969 -0.896302
v -0.888314 1.399692 -0.887276
v -0.836000 1.666619 -0.835355
v -0.827139 1.712356 -0.826353
v -0.774843 1.979264 -0.774424
v -0.765946 2.025017 -0.765450
v -0.821303 2.314297 0.821303
v -0.821303 2.515488 0.821303
v -0.821303 2.314297 -0.821303
v -0.821303 2.515488 -0.821303
v 0.821303 2.314297 0.821303
v 0.821303 2.515488 0.821303
v 0.821303 2.314297 -0.821303
v 0.821303 2.515488 -0.821303
v -0.865721 2.475556 0.865721
v -0.865721 2.354229 0.865721
v -0.893671 2.414893 0.893671
v -0.865721 2.354229 -0.865721
v -0.865721 2.475556 -0.865721
v -0.893671 2.414893 -0.893671
v 0.865721 2.354229 -0.865721
v 0.865721 2.475556 -0.865721
v 0.893671 2.414893 -0.893671
v 0.865721 2.354229 0.865721
v 0.865721 2.475556 0.865721
v 0.893671 2.414893 0.893671
v -0.771992 2.499291 0.771992
v -0.874077 2.961690 0.874077
v -0.771992 2.499291 -0.771992
v -0.874077 2.961690 -0.874077
v 0.771992 2.499291 0.771992
v 0.874077 2.961690 0.874077
v 0.771992 2.499291 -0.771992
v 0.874077 2.961690 -0.874077
v -1.049352 2.817648 1.049352
v -1.028553 2.916862 1.028553
v -1.057629 2.870586 1.057629
v -1.028553 2.916862 -1.028553
v -1.049352 2.817648 -1.049352
v -1.057629 2.870586 -1.057629
v 1.028553 2.916862 -1.028553
v 1.049352 2.817648 -1.049352
v 1.057629 2.870586 -1.057629
v 1.028553 2.916862 1.028553
v 1.049352 2.817648 1.049352
v 1.057629 2.870586 1.057629
v -0.811734 2.941176 0.811734
v -0.811734 2.941176 -0.811734
v 0.811734 2.941176 0.811734
v 0.811734 2.941176 -0.811734
v -1.000628 3.284860 1.000628
v -1.032516 3.218750 1.032516
v -1.044957 3.265496 1.044957
v -1.000628 3.284860 -1.000628
v -1.032516 3.218750 -1.032516
v -1.044957 3.265496 -1.044957
v 1.000628 3.284860 1.000628
v 1.032516 3.218750 1.032516
v 1.044957 3.265496 1.044957
v 1.000628 3.284860 -1.000628
v 1.032516 3.218750 -1.032516
v 1.044957 3.265496 -1.044957
v -0.807590 3.268787 0.807590
v -0.807590 3.412725 0.807590
v -0.807590 3.268787 -0.807590
v -0.807590 3.412725 -0.807590
v 0.807590 3.268787 0.807590
v 0.807590 3.412725 0.807590
v 0.807590 3.268787 -0.807590
v 0.807590 3.412725 -0.807590
v -0.685560 3.392936 0.685560
v -0.233676 8.854450 0.233676
v -0.685560 3.392936 -0.685560
v -0.233676 8.854450 -0.233676
v 0.685560 3.392936 0.685560
v 0.233676 8.854450 0.233676
v 0.685560 3.392936 -0.685560
v 0.233676 8.854450 -0.233676
v 0.000000 9.135348 0.000000
v -0.942431 1.087828 0.438929
v -0.544757 2.809908 0.438929
v -1.060132 1.074737 0.438929
v -0.987144 2.809908 0.438929
v -0.942431 1.087828 -0.464619
v -0.544757 2.809908 -0.464619
v -1.060132 1.074737 -0.464619
v -0.987144 2.809908 -0.464619
v 0.942431 1.087828 0.438929
v 0.544757 2.809908 0.438929
v 1.060132 1.074737 0.438929
v 0.987144 2.809908 0.438929
v 0.942431 1.087828 -0.464619
v 0.544757 2.809908 -0.464619
v 1.060132 1.074737 -0.464619
v 0.987144 2.809908 -0.464619
vn 1.0000 -0.0000 -0.0000
vn -0.0000 0.0420 0.9991
vn -1.0000 -0.0000 -0.0000
vn -0.0000 0.0420 -0.9991
vn -0.9697 0.2442 -0.0000
vn -0.0000 0.2442 -0.9697
vn 0.9697 0.2442 -0.0000
vn -0.0000 0.2442 0.9697
vn -0.0000 -1.0000 -0.0000
vn -0.0000 1.0000 -0.0000
vn -0.9270 0.3751 -0.0000
vn -0.0000 0.3751 -0.9270
vn 0.9270 0.3751 -0.0000
vn -0.0000 0.3751 0.9270
vn -0.9999 0.0124 -0.0000
vn -0.0000 0.0124 -0.9999
vn 0.9999 0.0124 -0.0000
vn -0.0000 0.0124 0.9999
vn -0.0000 0.1882 -0.9821
vn -0.0000 0.1917 -0.9815
vn 0.9755 0.2194 -0.0163
vn -0.9765 0.2154 -0.0055
vn -0.9753 0.2193 -0.0254
vn -0.9755 0.2194 -0.0163
vn -0.0000 0.1882 0.9821
vn 0.9742 0.2233 -0.0335
vn 0.9753 0.2193 -0.0254
vn 0.9765 0.2154 -0.0055
vn -0.0000 0.1952 -0.9808
vn -0.0000 0.1953 0.9807
vn -0.0000 0.1916 0.9815
vn -0.0000 1.0000 -0.0001
vn -0.0000 -1.0000 -0.0002
vn -0.9742 0.2233 -0.0335
vn -0.0000 0.2104 0.9776
vn -0.0000 0.2109 0.9775
vn -0.0000 0.2115 0.9774
vn 0.9775 0.2090 -0.0299
vn 0.9777 0.2090 -0.0214
vn 0.9778 0.2090 -0.0115
vn -0.0000 0.1937 -0.9811
vn -0.0000 0.1931 -0.9812
vn -0.0000 0.1925 -0.9813
vn -0.9775 0.2090 -0.0299
vn -0.9777 0.2090 -0.0214
vn -0.9778 0.2090 -0.0115
vn -0.0000 -0.7437 0.6686
vn -0.0000 -0.5325 0.8464
vn 0.6686 -0.7437 -0.0000
vn 0.8464 -0.5325 -0.0000
vn -0.6686 -0.7437 -0.0000
vn -0.8464 -0.5325 -0.0000
vn -0.0000 -0.7437 -0.6686
vn -0.0000 -0.5325 -0.8464
vn 0.8464 0.5325 -0.0000
vn 0.6686 0.7437 -0.0000
vn -0.0000 0.5325 -0.8464
vn -0.0000 0.7437 -0.6686
vn -0.8464 0.5325 -0.0000
vn -0.6686 0.7437 -0.0000
vn -0.0000 0.5325 0.8464
vn -0.0000 -0.0000 1.0000
vn -0.0000 -0.0000 -1.0000
vn -0.0000 0.7437 0.6686
vn -0.0000 0.9604 0.2787
vn -0.0000 0.6886 0.7251
vn -0.0000 0.9604 -0.2787
vn -0.0000 0.6886 -0.7251
vn 0.2787 0.9604 -0.0000
vn 0.7251 0.6886 -0.0000
vn -0.7540 -0.6569 -0.0000
vn -0.9366 -0.3504 -0.0000
vn -0.0000 -0.6569 -0.7540
vn -0.0000 -0.3504 -0.9366
vn 0.7540 -0.6569 -0.0000
vn 0.9366 -0.3504 -0.0000
vn -0.2787 0.9604 -0.0000
vn -0.7251 0.6886 -0.0000
vn -0.9884 0.1521 -0.0000
vn -0.0000 0.1521 -0.9884
vn 0.9884 0.1521 -0.0000
vn -0.0000 0.1521 0.9884
vn -0.0000 -0.3504 0.9366
vn -0.0000 -0.6569 0.7540
vn 0.1554 0.9755 -0.1554
vn -0.1554 0.9755 -0.1554
vn -0.1554 0.9755 0.1554
vn 0.1554 0.9755 0.1554
vn 0.7826 -0.6225 -0.0000
vn 0.9185 -0.3954 -0.0000
vn -0.7826 -0.6225 -0.0000
vn -0.9185 -0.3954 -0.0000
vn -0.0000 -0.6225 -0.7826
vn -0.0000 -0.3954 -0.9185
vn -0.2087 0.9555 -0.2087
vn -0.2087 0.9555 0.2087
vn -0.9664 -0.2572 -0.0000
vn 0.2087 0.9555 -0.2087
vn -0.0000 -0.2572 -0.9664
vn 0.2087 0.9555 0.2087
vn 0.9664 -0.2572 -0.0000
vn -0.0000 -0.2572 0.9664
vn -0.0000 -0.3954 0.9185
vn -0.0000 -0.6225 0.7826
vn -0.9966 0.0825 -0.0000
vn -0.0000 0.0825 -0.9966
vn 0.9966 0.0825 -0.0000
vn -0.0000 0.0825 0.9966
vn 0.7688 0.6395 -0.0000
vn -0.7688 0.6395 -0.0000
vn -0.0000 0.6395 0.7688
vn -0.0000 0.6395 -0.7688
vn -0.9991 0.0420 -0.0000
vn 0.9991 0.0420 -0.0000
vt 0.846951 0.610358
vt 0.821048 0.471877
vt 0.856281 0.473359
vt 0.856281 0.611795
vt 0.512228 0.436290
vt 0.373792 0.436290
vt 0.373792 0.364266
vt 0.512228 0.364266
vt 0.856281 0.622839
vt 0.856281 0.761275
vt 0.821048 0.762757
vt 0.846951 0.624276
vt 0.734317 0.005522
vt 0.793234 0.019910
vt 0.793234 0.227656
vt 0.734317 0.242043
vt 0.612374 0.610592
vt 0.671290 0.624979
vt 0.671290 0.832725
vt 0.612374 0.847113
vt 0.810004 0.708398
vt 0.751088 0.694011
vt 0.751088 0.486265
vt 0.810004 0.471877
vt 0.723273 0.242043
vt 0.664357 0.227656
vt 0.664357 0.019910
vt 0.723273 0.005522
vt 0.242043 0.005522
vt 0.242043 0.242043
vt 0.005522 0.242043
vt 0.005522 0.005522
vt 0.005522 0.253087
vt 0.213268 0.253087
vt 0.213268 0.460833
vt 0.005522 0.460833
vt 0.915574 0.451101
vt 0.897609 0.444363
vt 0.897609 0.259825
vt 0.915574 0.253087
vt 0.925770 0.669891
vt 0.907804 0.663153
vt 0.907804 0.478615
vt 0.925770 0.471877
vt 0.886565 0.451101
vt 0.868599 0.444363
vt 0.868599 0.259825
vt 0.886565 0.253087
vt 0.908999 0.203536
vt 0.891033 0.196798
vt 0.891034 0.012260
vt 0.908999 0.005522
vt 0.416792 0.471877
vt 0.601330 0.471877
vt 0.601330 0.656415
vt 0.416792 0.656415
vt 0.936814 0.471877
vt 0.947288 0.472008
vt 0.947288 0.642991
vt 0.936814 0.643121
vt 0.937328 0.680935
vt 0.947803 0.681066
vt 0.947803 0.852049
vt 0.937328 0.852180
vt 0.172398 0.936329
vt 0.161923 0.936198
vt 0.161923 0.765215
vt 0.172398 0.765084
vt 0.807839 0.890687
vt 0.797364 0.890556
vt 0.797364 0.719573
vt 0.807839 0.719442
vt 0.005522 0.754040
vt 0.005522 0.583056
vt 0.176506 0.583056
vt 0.176506 0.754040
vt 0.867325 0.799224
vt 0.889284 0.803357
vt 0.889284 0.910794
vt 0.867325 0.914927
vt 0.534400 0.923086
vt 0.514540 0.919279
vt 0.514540 0.802271
vt 0.534400 0.798465
vt 0.436926 0.923117
vt 0.417048 0.919398
vt 0.416792 0.802386
vt 0.436926 0.798465
vt 0.470211 0.914178
vt 0.447969 0.909979
vt 0.448241 0.802542
vt 0.470211 0.798465
vt 0.088806 0.898685
vt 0.068682 0.894722
vt 0.068921 0.768770
vt 0.088806 0.765084
vt 0.735495 0.900768
vt 0.715361 0.896847
vt 0.715618 0.779834
vt 0.735495 0.776116
vt 0.704317 0.894332
vt 0.682334 0.888943
vt 0.682334 0.781506
vt 0.704317 0.776116
vt 0.405682 0.891792
vt 0.384477 0.887821
vt 0.384263 0.752917
vt 0.405682 0.748581
vt 0.119974 0.898685
vt 0.100089 0.895000
vt 0.099850 0.769047
vt 0.119974 0.765084
vt 0.503496 0.914178
vt 0.481526 0.910101
vt 0.481255 0.802664
vt 0.503496 0.798465
vt 0.026695 0.908193
vt 0.005522 0.904060
vt 0.005522 0.769217
vt 0.026695 0.765084
vt 0.150879 0.898623
vt 0.131018 0.894817
vt 0.131018 0.768891
vt 0.150879 0.765084
vt 0.337732 0.901695
vt 0.316553 0.896306
vt 0.316553 0.753169
vt 0.337732 0.747780
vt 0.057638 0.906538
vt 0.037739 0.901570
vt 0.037739 0.770053
vt 0.057638 0.765084
vt 0.840949 0.903636
vt 0.821048 0.898668
vt 0.821048 0.778770
vt 0.840949 0.773801
vt 0.215633 0.876783
vt 0.215633 0.991986
vt 0.213656 0.990102
vt 0.213655 0.878730
vt 0.657849 0.858157
vt 0.657849 0.981825
vt 0.655727 0.980090
vt 0.655721 0.860282
vt 0.267703 0.876783
vt 0.267703 0.991428
vt 0.265735 0.989534
vt 0.265735 0.878715
vt 0.987116 0.253087
vt 0.987116 0.374868
vt 0.985022 0.373049
vt 0.985017 0.255131
vt 0.228654 0.876783
vt 0.228654 0.991954
vt 0.226678 0.990078
vt 0.226677 0.878743
vt 0.241676 0.876783
vt 0.241676 0.991921
vt 0.239699 0.990028
vt 0.239698 0.878716
vt 0.988082 0.471877
vt 0.988082 0.593111
vt 0.986002 0.591331
vt 0.985997 0.473932
vt 0.280694 0.876783
vt 0.280694 0.990300
vt 0.278748 0.988412
vt 0.278747 0.878825
vt 0.293686 0.876783
vt 0.293686 0.990248
vt 0.291739 0.988311
vt 0.291738 0.878722
vt 0.988548 0.680935
vt 0.988548 0.800714
vt 0.986492 0.798905
vt 0.986489 0.682945
vt 0.254691 0.876783
vt 0.254691 0.991574
vt 0.252723 0.989690
vt 0.252720 0.878848
vt 0.766241 0.870404
vt 0.766241 0.989787
vt 0.764189 0.987966
vt 0.764186 0.872412
vt 0.373219 0.891792
vt 0.351800 0.887455
vt 0.352015 0.752552
vt 0.373219 0.748581
vt 0.851993 0.912183
vt 0.851993 0.774579
vt 0.855377 0.773801
vt 0.855377 0.912960
vt 0.590910 0.959764
vt 0.590910 0.833758
vt 0.594293 0.832983
vt 0.594293 0.960539
vt 0.970592 0.368268
vt 0.970591 0.253859
vt 0.973973 0.253087
vt 0.973973 0.369040
vt 0.949567 0.135952
vt 0.949579 0.006257
vt 0.952972 0.005522
vt 0.952972 0.136591
vt 0.958847 0.935582
vt 0.958859 0.814833
vt 0.962252 0.814103
vt 0.962252 0.936225
vt 0.626823 0.970694
vt 0.626836 0.858881
vt 0.630228 0.858157
vt 0.630228 0.971342
vt 0.958332 0.602268
vt 0.958333 0.472522
vt 0.961736 0.471877
vt 0.961736 0.602913
vt 0.967421 0.006169
vt 0.967421 0.126981
vt 0.964016 0.127629
vt 0.964016 0.005522
vt 0.641272 0.970681
vt 0.641272 0.858806
vt 0.644677 0.858157
vt 0.644677 0.971331
vt 0.956155 0.383419
vt 0.956142 0.253726
vt 0.959547 0.253087
vt 0.959547 0.384154
vt 0.958859 0.802329
vt 0.958847 0.681578
vt 0.962252 0.680935
vt 0.962252 0.803059
vt 0.612387 0.970620
vt 0.612374 0.858804
vt 0.615779 0.858157
vt 0.615779 0.971344
vt 0.988539 0.816846
vt 0.988539 0.936785
vt 0.986483 0.934990
vt 0.986477 0.819024
vt 0.980595 0.005522
vt 0.980595 0.129324
vt 0.978469 0.127577
vt 0.978465 0.007570
vt 0.939425 0.863224
vt 0.939425 0.985211
vt 0.937335 0.983477
vt 0.937328 0.865460
vt 0.975433 0.816846
vt 0.975433 0.941031
vt 0.973301 0.939289
vt 0.973296 0.818916
vt 0.974953 0.471877
vt 0.974953 0.598108
vt 0.972788 0.596404
vt 0.972780 0.474040
vt 0.189575 0.876783
vt 0.189575 0.994478
vt 0.187553 0.992602
vt 0.187550 0.878775
vt 0.671023 0.858157
vt 0.671023 0.981649
vt 0.668898 0.979878
vt 0.668893 0.860212
vt 0.202611 0.876783
vt 0.202611 0.992791
vt 0.200620 0.990924
vt 0.200619 0.878726
vt 0.753142 0.870404
vt 0.753142 0.989891
vt 0.751092 0.988084
vt 0.751088 0.872436
vt 0.993663 0.005522
vt 0.993663 0.123348
vt 0.991643 0.121541
vt 0.991639 0.007663
vt 0.779336 0.870404
vt 0.779336 0.989716
vt 0.777288 0.987900
vt 0.777285 0.872395
vt 0.975445 0.680935
vt 0.975445 0.805802
vt 0.973305 0.804084
vt 0.973296 0.683223
vt 0.926284 0.806183
vt 0.921922 0.809427
vt 0.921922 0.682977
vt 0.926284 0.686220
vt 0.938523 0.130770
vt 0.934161 0.134013
vt 0.934161 0.007563
vt 0.938523 0.010807
vt 0.907804 0.827797
vt 0.912166 0.824553
vt 0.912166 0.951003
vt 0.907804 0.947760
vt 0.416792 0.787421
vt 0.416792 0.667459
vt 0.536754 0.667459
vt 0.536754 0.787421
vt 0.635582 0.253087
vt 0.755544 0.253087
vt 0.755544 0.373049
vt 0.635582 0.373049
vt 0.926618 0.258372
vt 0.930981 0.255128
vt 0.930980 0.381579
vt 0.926618 0.378335
vt 0.924405 0.134014
vt 0.920043 0.130770
vt 0.920043 0.010807
vt 0.924405 0.007563
vt 0.940736 0.255128
vt 0.945098 0.258372
vt 0.945098 0.378335
vt 0.940736 0.381579
vt 0.921922 0.824553
vt 0.926284 0.827797
vt 0.926284 0.947760
vt 0.921922 0.951003
vt 0.912166 0.809427
vt 0.912166 0.682977
vt 0.917044 0.680935
vt 0.917044 0.811468
vt 0.929283 0.005522
vt 0.929283 0.136055
vt 0.935858 0.383620
vt 0.935859 0.253087
vt 0.917044 0.953045
vt 0.917044 0.822512
vt 0.907804 0.806183
vt 0.907804 0.686220
vt 0.598286 0.680864
vt 0.598286 0.808534
vt 0.586539 0.819816
vt 0.586539 0.669582
vt 0.402288 0.596461
vt 0.402288 0.724132
vt 0.390541 0.735413
vt 0.390541 0.585180
vt 0.682334 0.751667
vt 0.682334 0.623997
vt 0.694081 0.612715
vt 0.694081 0.762949
vt 0.766588 0.273948
vt 0.797424 0.253692
vt 0.797424 0.406963
vt 0.766588 0.386707
vt 0.740044 0.471877
vt 0.740044 0.599548
vt 0.612374 0.599548
vt 0.612374 0.471877
vt 0.351800 0.603917
vt 0.382636 0.583661
vt 0.382636 0.736933
vt 0.351800 0.716676
vt 0.732822 0.744212
vt 0.701986 0.764468
vt 0.701986 0.611196
vt 0.732822 0.631452
vt 0.817076 0.266492
vt 0.817076 0.394163
vt 0.805329 0.405445
vt 0.805329 0.255211
vt 0.801337 0.407568
vt 0.801338 0.253087
vt 0.386549 0.737537
vt 0.386549 0.583056
vt 0.698072 0.610592
vt 0.698073 0.765072
vt 0.582547 0.821939
vt 0.582548 0.667459
vt 0.578634 0.821335
vt 0.578635 0.668063
vt 0.547798 0.688319
vt 0.547798 0.801079
vt 0.191124 0.586615
vt 0.337208 0.587091
vt 0.337182 0.733178
vt 0.191099 0.732701
vt 0.867325 0.488910
vt 0.893227 0.472786
vt 0.893227 0.623598
vt 0.867325 0.607474
vt 0.850554 0.022555
vt 0.876456 0.006431
vt 0.876457 0.157243
vt 0.850554 0.141119
vt 0.867325 0.652583
vt 0.893227 0.636459
vt 0.893227 0.787271
vt 0.867325 0.771147
vt 0.340756 0.583528
vt 0.340756 0.736736
vt 0.879989 0.005522
vt 0.879989 0.158151
vt 0.187550 0.583056
vt 0.896760 0.635551
vt 0.896760 0.788180
vt 0.187550 0.736264
vt 0.896760 0.471877
vt 0.896760 0.624507
vt 0.857555 0.253087
vt 0.857555 0.405717
vt 0.854022 0.404808
vt 0.854022 0.253996
vt 0.828120 0.270120
vt 0.828120 0.388684
vt 0.371047 0.227880
vt 0.371047 0.238392
vt 0.253087 0.238392
vt 0.253087 0.227880
vt 0.342271 0.447334
vt 0.342271 0.457846
vt 0.224312 0.457846
vt 0.224312 0.447334
vt 0.569354 0.832983
vt 0.579866 0.832983
vt 0.579866 0.950943
vt 0.569354 0.950943
vt 0.547798 0.832983
vt 0.558310 0.832983
vt 0.558310 0.950943
vt 0.547798 0.950943
vt 0.187550 0.747780
vt 0.305509 0.747780
vt 0.305509 0.865739
vt 0.187550 0.865739
vt 0.653313 0.216836
vt 0.253087 0.183834
vt 0.253087 0.149703
vt 0.653313 0.116701
vt 0.653313 0.105657
vt 0.253087 0.072655
vt 0.253087 0.038524
vt 0.653313 0.005522
vt 0.224312 0.253087
vt 0.624538 0.286089
vt 0.624538 0.320221
vt 0.224312 0.353222
vt 0.005522 0.471877
vt 0.405748 0.504879
vt 0.405748 0.539011
vt 0.005522 0.572012
vt 0.549957 0.364266
vt 0.549957 0.398398
vt 0.523272 0.381332
vt 0.587686 0.409442
vt 0.587686 0.443573
vt 0.561001 0.426507
vt 0.549957 0.409442
vt 0.549957 0.443573
vt 0.523272 0.426507
vt 0.587686 0.364266
vt 0.587686 0.398398
vt 0.561001 0.381332
vt 0.830180 0.144003
vt 0.804278 0.005522
vt 0.839510 0.007004
vt 0.839510 0.145440
vt 0.362748 0.436290
vt 0.224312 0.436290
vt 0.224312 0.364266
vt 0.362748 0.364266
vt 0.786320 0.719442
vt 0.786320 0.857878
vt 0.751088 0.859360
vt 0.776990 0.720879
s 0
usemtl Egyptian_Obelsik
f 1/1/1 2/2/1 4/3/1 3/4/1
f 3/5/2 4/6/2 8/7/2 7/8/2
f 7/9/3 8/10/3 6/11/3 5/12/3
f 9/1/1 11/4/1 12/3/1 10/2/1
f 11/5/4 15/8/4 16/7/4 12/6/4
f 15/9/3 13/12/3 14/11/3 16/10/3
s 1
f 17/13/5 18/14/5 20/15/5 19/16/5
f 19/17/6 20/18/6 24/19/6 23/20/6
f 23/21/7 24/22/7 22/23/7 21/24/7
f 21/25/8 22/26/8 18/27/8 17/28/8
f 19/29/9 23/30/9 21/31/9 17/32/9
f 24/33/10 20/34/10 18/35/10 22/36/10
f 25/37/11 26/38/11 28/39/11 27/40/11
f 27/41/12 28/42/12 32/43/12 31/44/12
f 31/45/13 32/46/13 30/47/13 29/48/13
f 29/49/14 30/50/14 26/51/14 25/52/14
f 32/53/10 28/54/10 26/55/10 30/56/10
f 33/57/15 34/58/15 36/59/15 35/60/15
f 35/61/16 36/62/16 40/63/16 39/64/16
f 39/65/17 40/66/17 38/67/17 37/68/17
f 37/69/18 38/70/18 34/71/18 33/72/18
f 40/73/10 36/74/10 34/75/10 38/76/10
f 56/77/19 44/78/19 48/79/19 62/80/19
f 58/81/20 55/82/20 61/83/20 64/84/20
f 64/85/21 61/86/21 67/87/21 70/88/21
f 53/89/22 42/90/22 44/91/22 56/92/22
f 49/93/23 52/94/23 57/95/23 60/96/23
f 51/97/24 54/98/24 55/99/24 58/100/24
f 68/101/25 46/102/25 42/103/25 53/104/25
f 47/105/26 65/106/26 71/107/26 45/108/26
f 66/109/27 63/110/27 69/111/27 72/112/27
f 62/113/28 48/114/28 46/115/28 68/116/28
f 43/117/29 59/118/29 65/119/29 47/120/29
f 60/121/20 57/122/20 63/123/20 66/124/20
f 45/125/30 71/126/30 50/127/30 41/128/30
f 72/129/31 69/130/31 52/131/31 49/132/31
f 70/133/31 67/134/31 54/135/31 51/136/31
f 61/137/32 55/138/32 95/139/32 89/140/32
f 71/141/10 65/142/10 85/143/10 73/144/10
f 56/145/33 62/146/33 90/147/33 96/148/33
f 66/149/33 72/150/33 74/151/33 86/152/33
f 55/153/32 54/154/32 84/155/32 95/156/32
f 67/157/32 61/158/32 89/159/32 81/160/32
f 70/161/33 51/162/33 79/163/33 78/164/33
f 53/165/33 56/166/33 96/167/33 83/168/33
f 62/169/33 68/170/33 82/171/33 90/172/33
f 63/173/32 57/174/32 93/175/32 87/176/32
f 54/177/32 67/178/32 81/179/32 84/180/32
f 57/181/32 52/182/32 80/183/32 93/184/32
f 41/185/34 50/186/34 59/187/34 43/188/34
f 74/189/35 75/190/35 76/191/35 73/192/35
f 78/193/36 79/194/36 80/195/36 77/196/36
f 82/197/37 83/198/37 84/199/37 81/200/37
f 86/201/38 74/202/38 73/203/38 85/204/38
f 88/205/39 78/206/39 77/207/39 87/208/39
f 90/209/40 82/210/40 81/211/40 89/212/40
f 92/213/41 86/214/41 85/215/41 91/216/41
f 94/217/42 88/218/42 87/219/42 93/220/42
f 96/221/43 90/222/43 89/223/43 95/224/43
f 75/225/44 92/226/44 91/227/44 76/228/44
f 79/229/45 94/230/45 93/231/45 80/232/45
f 83/233/46 96/234/46 95/235/46 84/236/46
f 52/237/32 69/238/32 77/239/32 80/240/32
f 60/241/33 66/242/33 86/243/33 92/244/33
f 49/245/33 60/246/33 92/247/33 75/248/33
f 65/249/10 59/250/10 91/251/10 85/252/10
f 72/253/33 49/254/33 75/255/33 74/256/33
f 64/257/33 70/258/33 78/259/33 88/260/33
f 59/261/10 50/262/10 76/263/10 91/264/10
f 68/265/33 53/266/33 83/267/33 82/268/33
f 69/269/32 63/270/32 87/271/32 77/272/32
f 51/273/33 58/274/33 94/275/33 79/276/33
f 58/277/33 64/278/33 88/279/33 94/280/33
f 50/281/10 71/282/10 73/283/10 76/284/10
f 101/285/47 114/286/48 106/287/48 97/288/47
f 103/289/49 111/290/50 114/291/50 101/292/49
f 97/293/51 106/294/52 108/295/52 99/296/51
f 99/297/9 103/298/9 101/299/9 97/300/9
f 104/301/10 100/302/10 98/303/10 102/304/10
f 99/305/53 108/306/54 111/307/54 103/308/53
f 112/309/55 104/310/56 102/311/56 115/312/55
f 109/313/57 100/314/58 104/315/58 112/316/57
f 105/317/59 98/318/60 100/319/60 109/320/59
f 115/321/61 105/322/61 107/323/62 116/324/62
f 116/324/62 107/323/62 106/287/48 114/286/48
f 112/309/55 115/312/55 116/325/1 113/326/1
f 113/326/1 116/325/1 114/291/50 111/290/50
f 109/313/57 112/316/57 113/327/63 110/328/63
f 110/328/63 113/327/63 111/307/54 108/306/54
f 105/317/59 109/320/59 110/329/3 107/330/3
f 107/330/3 110/329/3 108/295/52 106/294/52
f 115/321/61 102/331/64 98/332/64 105/322/61
f 122/333/65 118/334/65 126/335/66 134/336/66
f 120/337/67 124/338/67 131/339/68 128/340/68
f 124/341/69 122/342/69 134/343/70 131/344/70
f 117/345/71 125/346/72 129/347/72 119/348/71
f 124/349/10 120/350/10 118/351/10 122/352/10
f 119/353/73 129/354/74 132/355/74 123/356/73
f 123/357/75 132/358/76 135/359/76 121/360/75
f 118/361/77 120/362/77 128/363/78 126/364/78
f 126/364/78 128/363/78 130/365/79 127/366/79
f 127/366/79 130/365/79 129/347/72 125/346/72
f 128/340/68 131/339/68 133/367/80 130/368/80
f 130/368/80 133/367/80 132/355/74 129/354/74
f 131/344/70 134/343/70 136/369/81 133/370/81
f 133/370/81 136/369/81 135/359/76 132/358/76
f 134/336/66 126/335/66 127/371/82 136/372/82
f 136/372/82 127/371/82 125/373/83 135/374/83
f 121/375/84 135/374/83 125/373/83 117/376/84
f 150/377/85 144/378/86 141/379/87 147/380/88
f 140/381/89 151/382/90 148/383/90 139/384/89
f 137/385/91 142/386/92 145/387/92 138/388/91
f 138/389/93 145/390/94 151/391/94 140/392/93
f 141/379/87 144/378/86 146/393/95 143/394/96
f 143/395/97 146/396/97 145/387/92 142/386/92
f 144/378/86 150/377/85 152/397/98 146/393/95
f 146/398/99 152/399/99 151/391/94 145/390/94
f 150/377/85 147/380/88 149/400/100 152/397/98
f 152/401/101 149/402/101 148/383/90 151/382/90
f 147/380/88 141/379/87 143/394/96 149/400/100
f 149/403/102 143/404/102 142/405/103 148/406/103
f 139/407/104 148/406/103 142/405/103 137/408/104
f 153/409/3 154/410/3 156/411/3 155/412/3
f 155/413/63 156/414/63 160/415/63 159/416/63
f 159/417/1 160/418/1 158/419/1 157/420/1
f 157/421/62 158/422/62 154/423/62 153/424/62
f 160/425/10 156/426/10 154/427/10 158/428/10
f 161/429/105 162/430/105 164/431/105 163/432/105
f 163/433/106 164/434/106 168/435/106 167/436/106
f 167/437/107 168/438/107 166/439/107 165/440/107
f 165/441/108 166/442/108 162/443/108 161/444/108
f 166/445/109 168/446/109 169/447/109
f 164/448/110 162/449/110 169/450/110
f 162/451/111 166/452/111 169/453/111
f 168/454/112 164/455/112 169/456/112
s 0
f 170/457/62 171/458/62 173/459/62 172/460/62
f 172/461/113 173/462/113 177/463/113 176/464/113
f 176/465/63 177/466/63 175/467/63 174/468/63
f 178/457/62 180/460/62 181/459/62 179/458/62
f 180/461/114 184/464/114 185/463/114 181/462/114
f 184/465/63 182/468/63 183/467/63 185/466/63
